Coordinates
version=1
nRows=22
nColumns=33
inDegrees=yes

Units are S.I. units (second, meters, Newtons, ...)
Angles are in degrees.

endheader
time	ground_thorax_rot_x	ground_thorax_rot_y	ground_thorax_rot_z	ground_thorax_tx	ground_thorax_ty	ground_thorax_tz	clav_prot_r	clav_elev_r	scapula_abduction_r	scapula_elevation_r	scapula_upward_rot_r	scapula_winging_r	shoulder_elv_r	plane_of_elev_r	axial_rot_r	elbow_flexion_r	pro_sup_r	wrist_flex_r	wrist_dev_r	clav_prot_l	clav_elev_l	scapula_abduction_l	scapula_elevation_l	scapula_upward_rot_l	scapula_winging_l	shoulder_elv_l	plane_of_elev_l	axial_rot_l	elbow_flexion_l	pro_sup_l	wrist_flex_l	wrist_dev_l	
3.4400	32.655011	25.502330	30.731971	-88.472474	865.145824	-41.615217	-0.652743	39.626387	38.287476	45.000000	17.387553	2037.585676	980.724114	143.369263	-180.000000	1064.598825	68.088048	24.843833	14.166552	-5.950812	-45.000000	-40.920415	45.000000	-45.000000	1906.897982	-2801.118126	25.348365	25.203448	2150.715768	50.408379	10.803956	-24.146738	
3.4500	32.583069	25.626414	31.019641	-87.669561	863.906052	-41.498275	-0.393226	39.622159	38.389801	45.000000	16.640774	2037.500106	980.451137	143.335869	-180.000000	1064.563698	67.604711	24.855127	14.218826	-5.914483	-45.000000	-40.815300	45.000000	-45.000000	1906.838603	-2801.195860	25.272418	24.966268	2150.736790	50.520591	10.717443	-24.089727	
3.4600	32.525993	25.737194	31.284456	-86.856846	862.679461	-41.376860	-0.136444	39.584028	38.510361	45.000000	15.884341	2037.413916	980.174487	143.302729	-180.000000	1064.524429	67.127055	24.874911	14.252613	-5.842155	-45.000000	-40.710114	45.000000	-45.000000	1906.756677	-2801.265209	25.181057	24.776717	2150.756000	50.608762	10.631952	-24.047392	
3.4700	32.487078	25.813558	31.489873	-86.011682	861.471783	-41.245826	-0.001039	39.579762	38.592886	45.000000	15.441402	2037.327550	979.966376	143.283944	-180.000000	1064.496612	66.718658	24.872981	14.294133	-5.841530	-45.000000	-40.617234	45.000000	-45.000000	1906.679658	-2801.336839	25.133973	24.667298	2150.760443	50.635972	10.566915	-24.030810	
3.4800	32.466216	25.865005	31.652280	-85.142585	860.296853	-41.105555	0.064168	39.598662	38.652952	45.000000	15.187169	2037.249871	979.797122	143.272227	-180.000000	1064.473865	66.349966	24.858550	14.345342	-5.874936	-45.000000	-40.539165	45.000000	-45.000000	1906.607638	-2801.408072	25.110472	24.635244	2150.749510	50.601911	10.521709	-24.035352	
3.4900	32.460800	25.894694	31.776459	-84.252433	859.170372	-40.956555	0.066004	39.617786	38.700831	45.000000	15.095536	2037.181503	979.670196	143.266426	-180.000000	1064.449115	66.006212	24.831930	14.398349	-5.923079	-45.000000	-40.472638	45.000000	-45.000000	1906.529491	-2801.472554	25.100049	24.671973	2150.728936	50.496834	10.492742	-24.044157	
3.5000	32.459977	25.918197	31.882107	-83.347503	858.110235	-40.801701	0.034368	39.659575	38.726844	45.000000	15.106318	2037.129621	979.567978	143.262396	-180.000000	1064.426042	65.665335	24.793023	14.469430	-5.980154	-45.000000	-40.429343	45.000000	-45.000000	1906.460572	-2801.531934	25.104853	24.763201	2150.696934	50.318815	10.486707	-24.052757	
3.5100	32.462236	25.937011	31.973377	-82.430598	857.134522	-40.645434	-0.017962	39.685611	38.752605	45.000000	15.160046	2037.095954	979.488758	143.265263	-180.000000	1064.397657	65.301054	24.747998	14.542200	-6.010963	-45.000000	-40.400347	45.000000	-45.000000	1906.384026	-2801.580845	25.109874	24.891275	2150.664380	50.065838	10.497481	-24.047972	
3.5200	32.460200	25.954604	32.054495	-81.496507	856.259427	-40.492814	-0.087830	39.725539	38.769599	45.000000	15.265650	2037.077577	979.429437	143.276863	-180.000000	1064.373611	64.906842	24.693486	14.632221	-6.031868	-45.000000	-40.394209	45.000000	-45.000000	1906.315370	-2801.623357	25.132247	25.055421	2150.629071	49.736910	10.534985	-24.037160	
3.5300	32.450539	25.973154	32.128520	-80.533645	855.498405	-40.348849	-0.179611	39.748724	38.786960	45.000000	15.418737	2037.072427	979.396275	143.295761	-180.000000	1064.338046	64.485063	24.625720	14.724721	-6.027742	-45.000000	-40.406868	45.000000	-45.000000	1906.234599	-2801.653220	25.157458	25.254556	2150.599661	49.336940	10.591335	-24.013590	
3.5400	32.436346	25.984977	32.189753	-79.527205	854.861277	-40.217826	-0.278139	39.774289	38.814993	45.000000	15.624774	2037.061324	979.381646	143.318349	-180.000000	1064.308690	64.042865	24.552191	14.828479	-6.023184	-45.000000	-40.432484	45.000000	-45.000000	1906.153827	-2801.672879	25.203474	25.500398	2150.572223	48.875317	10.673394	-23.986089	
3.5500	32.419166	25.992133	32.244283	-78.462002	854.353088	-40.102697	-0.390217	39.781054	38.854763	45.000000	15.879125	2037.053965	979.390858	143.345395	-180.000000	1064.274974	63.591714	24.474150	14.930967	-6.008753	-45.000000	-40.467630	45.000000	-45.000000	1906.057951	-2801.682695	25.253277	25.797260	2150.551692	48.366802	10.772790	-23.950317	
3.5600	32.406718	25.979477	32.284218	-77.324929	853.973176	-40.004852	-0.493159	39.780420	38.927637	45.000000	16.185184	2037.020295	979.412446	143.363102	-180.000000	1064.247930	63.140811	24.403369	15.043370	-6.006217	-45.000000	-40.490089	45.000000	-45.000000	1905.959575	-2801.681059	25.330882	26.158864	2150.529474	47.825063	10.893291	-23.912634	
3.5700	32.389888	25.967144	32.329110	-76.105579	853.714179	-39.924177	-0.598751	39.770148	39.006892	45.000000	16.534533	2036.986182	979.450425	143.372065	-180.000000	1064.210992	62.705974	24.330296	15.159865	-6.007680	-45.000000	-40.515112	45.000000	-45.000000	1905.846399	-2801.670261	25.414265	26.583028	2150.511939	47.269712	11.025322	-23.866309	
3.5800	32.378344	25.933100	32.362450	-74.796172	853.562267	-39.859616	-0.684263	39.748137	39.123425	45.000000	16.929271	2036.912381	979.491065	143.357822	-180.000000	1064.174407	62.291010	24.267644	15.286952	-6.023057	-45.000000	-40.515549	45.000000	-45.000000	1905.731991	-2801.649576	25.534098	27.079653	2150.490324	46.713537	11.169953	-23.818986	
3.5900	32.364931	25.892736	32.397671	-73.390334	853.497892	-39.809800	-0.767971	39.715422	39.249260	45.000000	17.362072	2036.830508	979.535994	143.328900	-180.000000	1064.127522	61.902199	24.206591	15.420822	-6.038172	-45.000000	-40.512710	45.000000	-45.000000	1905.608874	-2801.627908	25.672495	27.646994	2150.466598	46.171248	11.321602	-23.772379	
3.6000	32.352551	25.831526	32.424109	-71.882162	853.497636	-39.773735	-0.827488	39.665997	39.412277	45.000000	17.831744	2036.703737	979.571226	143.272657	-180.000000	1064.070131	61.537672	24.148536	15.565449	-6.064310	-45.000000	-40.489204	45.000000	-45.000000	1905.482917	-2801.599545	25.846037	28.290474	2150.433878	45.649387	11.477998	-23.728523	
3.6100	32.325380	25.779582	32.466493	-70.265694	853.536429	-39.751113	-0.897571	39.611996	39.568163	45.000000	18.321930	2036.584934	979.605585	143.215641	-180.000000	1064.001703	61.201807	24.082003	15.712692	-6.082516	-45.000000	-40.479852	45.000000	-45.000000	1905.346072	-2801.572873	26.027079	28.993793	2150.404872	45.158543	11.636447	-23.679014	
3.6200	32.287282	25.726319	32.520049	-68.534884	853.589837	-39.742336	-0.962034	39.550829	39.739456	45.000000	18.828321	2036.446832	979.631696	143.148945	-180.000000	1063.931578	60.892134	24.011610	15.862564	-6.103715	-45.000000	-40.468553	45.000000	-45.000000	1905.202550	-2801.542945	26.225307	29.755407	2150.375792	44.700374	11.797284	-23.624458	
3.6300	32.230604	25.693363	32.603542	-66.684080	853.635821	-39.748179	-1.051077	39.493940	39.897930	45.000000	19.339266	2036.328711	979.661579	143.096299	-180.000000	1063.869266	60.609378	23.934761	16.007587	-6.114132	-45.000000	-40.474360	45.000000	-45.000000	1905.046899	-2801.516562	26.420462	30.559678	2150.356223	44.277844	11.961793	-23.559904	
3.6400	32.160614	25.673327	32.708672	-64.708420	853.655855	-39.769401	-1.137315	39.436729	40.058590	45.000000	19.853420	2036.202805	979.680829	143.040482	-180.000000	1063.810899	60.353471	23.849561	16.148826	-6.136766	-45.000000	-40.485507	45.000000	-45.000000	1904.876852	-2801.488141	26.617187	31.409340	2150.342627	43.888963	12.129676	-23.481897	
3.6500	32.075513	25.677219	32.843819	-62.604743	853.635317	-39.806398	-1.237162	39.386865	40.210583	45.000000	20.359800	2036.090123	979.698243	142.996047	-180.000000	1063.762949	60.125659	23.757558	16.282420	-6.161590	-45.000000	-40.508514	45.000000	-45.000000	1904.691163	-2801.459951	26.806865	32.292438	2150.342044	43.532278	12.303210	-23.388343	
